<svg width="576" height="512" viewBox="0 0 576 512" fill="none" xmlns="http://www.w3.org/2000/svg">
<path d="M463.1 416C436.59 416 416 437.49 416 464C416 490.51 437.49 512 463.1 512C488.71 512 510.2 490.51 510.2 464C510.2 437.49 490.5 416 463.1 416ZM175.1 416C148.59 416 128 437.49 128 464C128 490.51 149.5 512 175.1 512C200.7 512 222.2 490.51 222.2 464C222.2 437.49 202.5 416 175.1 416ZM569.5 44.73C563.391 36.636 554.08 32 543.94 32H121.1L119.6 19.51C117.4 8.19 107.5 0 96 0H23.1C10.75 0 0 10.75 0 23.1C0 35.45 10.75 48 23.1 48H75.24L135.52 364.5C138.6 375.8 148.5 384 160 384H488C501.25 384 512 373.25 512 360.9C512 346.7 501.3 336 488 336H179.9L170.7 288H489.1C503.39 288 515.94 278.53 519.87 264.79L574.73 73.69C577.5 63.05 575.6 52.83 569.5 44.73Z" fill="white"/>
</svg>
