<?xml version="1.0" encoding="UTF-8"?>
<!DOCTYPE svg PUBLIC "-//W3C//DTD SVG 1.1//EN" "http://www.w3.org/Graphics/SVG/1.1/DTD/svg11.dtd">
<!-- Creator: CorelDRAW 2021 (64-Bit) -->
<svg xmlns="http://www.w3.org/2000/svg" xml:space="preserve" width="0.419276in" height="0.41928in" version="1.1" style="shape-rendering:geometricPrecision; text-rendering:geometricPrecision; image-rendering:optimizeQuality; fill-rule:evenodd; clip-rule:evenodd"
viewBox="0 0 7.1 7.1"
 xmlns:xlink="http://www.w3.org/1999/xlink"
 xmlns:xodm="http://www.corel.com/coreldraw/odm/2003">
 <defs>
  <style type="text/css">
   <![CDATA[
    .fil0 {fill:#664634}
   ]]>
  </style>
 </defs>
 <g id="Capa_x0020_1">
  <metadata id="CorelCorpID_0Corel-Layer"/>
  <path class="fil0" d="M3.54 7.1c-1.95,0 -3.54,-1.61 -3.54,-3.56 0,-1.95 1.58,-3.54 3.54,-3.54 1.95,0 3.56,1.58 3.56,3.54 0,1.95 -1.61,3.56 -3.56,3.56l0 0zm0 -6.68c-1.72,0 -3.1,1.38 -3.1,3.1 0,1.72 1.38,3.13 3.1,3.13 1.72,0 3.13,-1.41 3.13,-3.13 0,-1.72 -1.41,-3.1 -3.13,-3.1l0 0zm0.92 1.9c0,0 -0.32,0 -0.43,0 -0.14,0 -0.17,0.06 -0.17,0.2 0,0.14 0,0.4 0,0.4 0.6,0 0.6,0 0.6,0 -0.06,0.66 -0.06,0.66 -0.06,0.66 -0.55,0 -0.55,0 -0.55,0 0,1.98 0,1.98 0,1.98 -0.8,0 -0.8,0 -0.8,0 0,-1.98 0,-1.98 0,-1.98 -0.43,0 -0.43,0 -0.43,0 0,-0.66 0,-0.66 0,-0.66 0.43,0 0.43,0 0.43,0 0,0 0,-0.12 0,-0.55 0,-0.52 0.26,-0.78 0.86,-0.78 0.09,0 0.55,0 0.55,0l0 0.72z"/>
 </g>
</svg>
