<?xml version="1.0" encoding="UTF-8"?>
<!DOCTYPE svg PUBLIC "-//W3C//DTD SVG 1.1//EN" "http://www.w3.org/Graphics/SVG/1.1/DTD/svg11.dtd">
<!-- Creator: CorelDRAW 2021 (64-Bit) -->
<svg xmlns="http://www.w3.org/2000/svg" xml:space="preserve" width="0.419291in" height="0.419291in" version="1.1" style="shape-rendering:geometricPrecision; text-rendering:geometricPrecision; image-rendering:optimizeQuality; fill-rule:evenodd; clip-rule:evenodd"
viewBox="0 0 7.41 7.41"
 xmlns:xlink="http://www.w3.org/1999/xlink"
 xmlns:xodm="http://www.corel.com/coreldraw/odm/2003">
 <defs>
  <style type="text/css">
   <![CDATA[
    .fil0 {fill:#664634}
   ]]>
  </style>
 </defs>
 <g id="Capa_x0020_1">
  <metadata id="CorelCorpID_0Corel-Layer"/>
  <path class="fil0" d="M3.71 7.41c-2.04,0 -3.71,-1.66 -3.71,-3.71 0,-2.04 1.66,-3.71 3.71,-3.71 2.04,0 3.71,1.66 3.71,3.71 0,2.04 -1.66,3.71 -3.71,3.71l0 0zm0 -4.26c-0.35,0 -0.63,0.28 -0.63,0.62 0,0.34 0.28,0.63 0.63,0.63 0.34,0 0.62,-0.28 0.62,-0.63 0,-0.34 -0.28,-0.62 -0.62,-0.62l0 0zm1.46 -0.49c-0.04,-0.08 -0.08,-0.15 -0.14,-0.21 -0.07,-0.07 -0.13,-0.11 -0.22,-0.14 -0.07,-0.03 -0.17,-0.06 -0.35,-0.07 -0.2,-0.01 -0.25,-0.01 -0.76,-0.01 -0.51,0 -0.56,0 -0.76,0.01 -0.18,0.01 -0.28,0.04 -0.35,0.07 -0.09,0.03 -0.15,0.08 -0.22,0.14 -0.07,0.07 -0.1,0.13 -0.14,0.21 -0.02,0.07 -0.06,0.17 -0.06,0.35 -0.01,0.2 -0.01,0.26 -0.01,0.76 0,0.5 0,0.56 0.01,0.76 0,0.18 0.04,0.28 0.06,0.35 0.04,0.08 0.08,0.15 0.14,0.22 0.07,0.07 0.13,0.1 0.22,0.14 0.07,0.03 0.17,0.06 0.35,0.07 0.2,0.01 0.25,0.01 0.76,0.01 0.5,0 0.56,0 0.76,-0.01 0.18,-0.01 0.28,-0.04 0.35,-0.07 0.09,-0.03 0.15,-0.07 0.22,-0.14 0.07,-0.07 0.1,-0.13 0.14,-0.22 0.02,-0.07 0.06,-0.17 0.06,-0.35 0.01,-0.2 0.01,-0.26 0.01,-0.76 0,-0.5 -0,-0.56 -0.01,-0.76 -0,-0.18 -0.04,-0.28 -0.06,-0.35l0 0zm-1.46 2.07c-0.53,0 -0.97,-0.43 -0.97,-0.96 0,-0.53 0.43,-0.96 0.97,-0.96 0.53,0 0.96,0.43 0.96,0.96 0,0.53 -0.43,0.96 -0.96,0.96l0 0zm1 -1.74c-0.12,0 -0.23,-0.1 -0.23,-0.22 0,-0.13 0.1,-0.23 0.23,-0.23 0.12,0 0.23,0.1 0.23,0.23 0,0.12 -0.1,0.22 -0.23,0.22l0 0zm-1.01 -2.54c-1.79,0 -3.25,1.45 -3.25,3.25 0,1.79 1.45,3.25 3.25,3.25 1.79,0 3.25,-1.45 3.25,-3.25 0,-1.8 -1.45,-3.25 -3.25,-3.25l0 0zm1.87 4.09c-0.01,0.2 -0.04,0.34 -0.08,0.46 -0.05,0.12 -0.11,0.23 -0.22,0.33 -0.1,0.1 -0.21,0.17 -0.34,0.22 -0.12,0.05 -0.25,0.08 -0.45,0.09 -0.2,0.01 -0.26,0.01 -0.77,0.01 -0.51,0 -0.58,0 -0.78,-0.01 -0.2,-0.01 -0.34,-0.04 -0.45,-0.09 -0.12,-0.05 -0.23,-0.11 -0.34,-0.22 -0.1,-0.1 -0.17,-0.21 -0.22,-0.33 -0.04,-0.12 -0.08,-0.26 -0.08,-0.46 -0.01,-0.2 -0.01,-0.26 -0.01,-0.77 0,-0.51 0,-0.58 0.01,-0.77 0.01,-0.2 0.04,-0.34 0.08,-0.46 0.05,-0.12 0.11,-0.23 0.22,-0.33 0.11,-0.1 0.21,-0.17 0.34,-0.22 0.12,-0.05 0.25,-0.08 0.45,-0.08 0.2,-0.01 0.26,-0.01 0.78,-0.01 0.51,0 0.57,0 0.77,0.01 0.2,0.01 0.34,0.04 0.45,0.08 0.12,0.05 0.23,0.11 0.34,0.22 0.1,0.1 0.17,0.21 0.22,0.33 0.04,0.12 0.08,0.26 0.08,0.46 0.01,0.2 0.01,0.26 0.01,0.77 0,0.51 -0,0.58 -0.01,0.77l0 0z"/>
 </g>
</svg>
