<?xml version="1.0" encoding="UTF-8"?>
<!DOCTYPE svg PUBLIC "-//W3C//DTD SVG 1.1//EN" "http://www.w3.org/Graphics/SVG/1.1/DTD/svg11.dtd">
<!-- Creator: CorelDRAW 2021 (64-Bit) -->
<svg xmlns="http://www.w3.org/2000/svg" xml:space="preserve" width="0.415469in" height="0.415469in" version="1.1" style="shape-rendering:geometricPrecision; text-rendering:geometricPrecision; image-rendering:optimizeQuality; fill-rule:evenodd; clip-rule:evenodd"
viewBox="0 0 6.97 6.97"
 xmlns:xlink="http://www.w3.org/1999/xlink"
 xmlns:xodm="http://www.corel.com/coreldraw/odm/2003">
 <defs>
  <style type="text/css">
   <![CDATA[
    .fil0 {fill:#664634}
   ]]>
  </style>
 </defs>
 <g id="Capa_x0020_1">
  <metadata id="CorelCorpID_0Corel-Layer"/>
  <g id="_2882414873104">
   <path class="fil0" d="M3.49 6.97c-1.92,0 -3.49,-1.57 -3.49,-3.49 0,-1.92 1.57,-3.49 3.49,-3.49 1.92,0 3.49,1.57 3.49,3.49 0,1.92 -1.57,3.49 -3.49,3.49l0 0zm0 -6.54c-1.68,0 -3.05,1.38 -3.05,3.05 0,1.7 1.38,3.05 3.05,3.05 1.7,0 3.05,-1.35 3.05,-3.05 0,-1.68 -1.35,-3.05 -3.05,-3.05l0 0z"/>
   <path class="fil0" d="M2.04 2.01c0.97,0 1.95,0 2.92,0 0.08,0 0.16,0.03 0.27,0.05 -0.59,0.51 -1.16,1 -1.73,1.51 -0.57,-0.51 -1.14,-1 -1.73,-1.51 0.11,-0.03 0.19,-0.05 0.27,-0.05l0 0zm-0.51 2.46c0,-0.68 0,-1.32 0,-2 0,-0.08 0.05,-0.16 0.08,-0.24 0.41,0.35 0.81,0.7 1.24,1.08 -0.43,0.46 -0.84,0.92 -1.27,1.41 0,-0.11 -0.05,-0.16 -0.05,-0.24l0 0zm3.43 0.49c-0.97,0 -1.95,0 -2.92,0 -0.11,0 -0.19,-0.05 -0.3,-0.08 0.43,-0.49 0.86,-0.95 1.27,-1.41 0.14,0.11 0.27,0.22 0.38,0.32 0.08,0.05 0.14,0.05 0.22,0 0.11,-0.11 0.24,-0.22 0.35,-0.32 0.43,0.46 0.84,0.92 1.27,1.41 -0.11,0.03 -0.19,0.08 -0.27,0.08l0 0zm0.49 -0.51c0,0.08 -0.03,0.16 -0.03,0.24 -0.03,0 -0.03,0 -0.03,0 -0.43,-0.46 -0.84,-0.92 -1.24,-1.38 0.41,-0.35 0.81,-0.7 1.24,-1.11 0.03,0.14 0.05,0.22 0.05,0.3 0,0.65 0,1.3 0,1.95l0 0z"/>
  </g>
 </g>
</svg>
