<?xml version="1.0" encoding="UTF-8"?>
<!DOCTYPE svg PUBLIC "-//W3C//DTD SVG 1.1//EN" "http://www.w3.org/Graphics/SVG/1.1/DTD/svg11.dtd">
<!-- Creator: CorelDRAW 2021 (64-Bit) -->
<svg xmlns="http://www.w3.org/2000/svg" xml:space="preserve" width="1.42172in" height="0.11548in" version="1.1" style="shape-rendering:geometricPrecision; text-rendering:geometricPrecision; image-rendering:optimizeQuality; fill-rule:evenodd; clip-rule:evenodd"
viewBox="0 0 873.19 70.92"
 xmlns:xlink="http://www.w3.org/1999/xlink"
 xmlns:xodm="http://www.corel.com/coreldraw/odm/2003">
 <defs>
  <style type="text/css">
   <![CDATA[
    .str0 {stroke:#FEFEFE;stroke-width:1.84;stroke-linecap:round;stroke-linejoin:round;stroke-miterlimit:2.61313}
    .fil0 {fill:#FEFEFE;fill-rule:nonzero}
   ]]>
  </style>
 </defs>
 <g id="Capa_x0020_1">
  <metadata id="CorelCorpID_0Corel-Layer"/>
  <path class="fil0 str0" d="M35.39 5.32c0,-0.43 -0.28,-0.71 -0.71,-0.71 -6.1,0.28 -25.68,1.77 -33.12,2.84 -0.36,0.07 -0.64,0.36 -0.64,0.71l0 3.62c0,0.35 0.43,0.71 0.78,0.64 3.47,-0.57 8.37,-1.14 13.62,-1.56l0 41.42c0,0.43 0.28,0.71 0.71,0.71l4.33 0c0.43,0 0.71,-0.28 0.71,-0.71l0 -41.85c5.82,-0.43 10.57,-0.64 13.62,-0.71 0.35,0 0.71,-0.28 0.71,-0.64l0 -3.76zm36.24 23.19c0,-6.53 -2.55,-11.63 -10.92,-11.63 -4.89,0 -8.87,2.27 -11.35,5.82 0.29,-1.77 0.07,-0.99 0.07,-3.33l0 -12.69c-0.57,-2.63 -0.78,-3.26 -2.06,-4.97 -0.07,-0.14 -0.43,-0.28 -0.57,-0.28l-4.96 0c-0.64,0 -0.92,0.64 -0.57,1.06 1.84,2.34 2.41,4.26 2.41,7.73l0 37.45c0.07,2.2 0.14,4.4 2.41,4.89 0.78,0.14 1.63,0.28 2.41,0.43 0.43,0.07 0.85,-0.28 0.85,-0.71l0.07 -16.31c0,-8.23 4.18,-14.19 10.28,-14.19 4.89,0 6.17,2.98 6.17,8.3l0 17.66c0.43,2.55 0.71,3.19 2.06,4.97 0.07,0.14 0.35,0.28 0.5,0.28l4.96 0c0.64,0 0.92,-0.64 0.57,-1.13 -1.77,-2.34 -2.34,-4.04 -2.34,-7.66l0 -15.68zm25.25 -11.56c-9.65,0 -15.32,8.37 -15.39,19.72 -0.07,11.21 5.68,16.88 16.17,16.88 4.4,0 8.23,-0.78 11.35,-2.06 0.21,-0.07 0.43,-0.43 0.43,-0.71l-0.36 -3.9c0,-0.5 -0.5,-0.71 -0.99,-0.5 -2.41,1.13 -6.1,2.13 -9.65,2.13 -7.38,0 -11.28,-3.97 -10.92,-12.48 7.59,-1.56 22.63,-2.06 22.63,-2.06 0.28,-2.27 0.43,-2.84 0.5,-2.84 -0.07,-7.59 -4.11,-14.18 -13.76,-14.18zm-0.29 4.68c4.89,0 7.95,3.33 8.16,7.94 0,0 -11.28,1.21 -17.02,2.48 0.92,-6.74 4.47,-10.43 8.86,-10.43zm56.6 1.84c0,0 -6.17,0.14 -9.79,0.78 0.21,2.98 0.28,7.38 0.28,11.85 0,9.5 -0.35,19.65 -0.35,19.65 0,0.36 -0.36,0.71 -0.71,0.71l-4.26 0c-0.43,0 -0.71,-0.28 -0.71,-0.71 0,0 0.28,-10 0.28,-19.22 0,-4.68 0,-8.16 -0.21,-10.99 -0.92,0.21 -1.56,0.21 -2.55,0.21 -0.85,0 -1.63,-0.07 -2.41,-0.21 -0.28,-0.07 -0.57,-0.36 -0.57,-0.71l0 -3.62c0,-0.5 0.43,-0.85 0.92,-0.71 0.64,0.21 1.28,0.29 1.92,0.29 0.78,0 1.7,-0.14 2.62,-0.36l0 -3.54c0,-9.93 5.04,-15.96 13.41,-15.96 2.13,0 3.97,0.21 5.75,0.64 0.36,0.07 0.64,0.43 0.57,0.71l-0.5 3.76c-0.07,0.5 -0.5,0.78 -0.85,0.64 -1.77,-0.57 -3.69,-0.78 -5.32,-0.78 -5.18,0 -7.37,4.26 -7.37,10.85l0 2.41c3.69,-0.57 9.86,-0.78 9.86,-0.78 0.43,0 0.64,0.29 0.64,0.71l0 3.69c0,0.36 -0.28,0.71 -0.64,0.71zm12.48 -5.32c-0.07,-0.14 -0.43,-0.28 -0.57,-0.28l-4.89 0c-0.64,0 -0.92,0.64 -0.57,1.13 1.77,2.34 2.34,4.04 2.34,7.59l0 25.68c0,0.43 0.28,0.71 0.71,0.71l4.19 0c0.43,0 0.71,-0.28 0.71,-0.71l0 -15.04c0,-10.14 2.84,-14.89 8.58,-14.89 0.64,0 1.35,0.07 2.13,0.21 0.43,0.07 0.85,-0.28 0.85,-0.64l0.14 -4.26c0,-0.35 -0.28,-0.64 -0.64,-0.71 -5.89,-0.64 -9.5,1.7 -11.56,5.11 -0.14,-1.84 -0.28,-2.34 -1.42,-3.9zm33.55 -1.2c-9.65,0 -15.32,8.37 -15.39,19.72 -0.07,11.21 5.68,16.88 16.17,16.88 4.4,0 8.23,-0.78 11.35,-2.06 0.21,-0.07 0.43,-0.43 0.43,-0.71l-0.36 -3.9c0,-0.5 -0.5,-0.71 -0.99,-0.5 -2.41,1.13 -6.1,2.13 -9.65,2.13 -7.38,0 -11.28,-3.97 -10.92,-12.48 7.59,-1.56 22.63,-2.06 22.63,-2.06 0.28,-2.27 0.43,-2.84 0.5,-2.84 -0.07,-7.59 -4.11,-14.18 -13.76,-14.18zm-0.29 4.68c4.89,0 7.95,3.33 8.16,7.94 0,0 -11.28,1.21 -17.02,2.48 0.92,-6.74 4.47,-10.43 8.86,-10.43zm31.14 31.78c-7.94,0 -10.85,-4.61 -10.85,-9.86 0,-1.56 0.36,-2.98 0.92,-4.26 0.14,-0.29 0.5,-0.5 0.71,-0.43l3.76 0.64c0.36,0.07 0.57,0.35 0.57,0.71 0,0.21 -0.07,0.36 -0.14,0.57 -0.21,0.85 -0.57,2.13 -0.57,2.48 0,2.91 1.99,5.25 6.1,5.25 4.82,0 7.09,-3.4 7.09,-6.95 0,-3.33 -3.48,-4.18 -6.95,-4.89 -4.82,-1.06 -10.21,-2.34 -10.21,-9.43 0,-6.03 4.75,-10.43 13.69,-10.43 2.2,0 4.68,0.21 6.88,0.71 0.35,0.07 0.57,0.43 0.57,0.78l-0.21 3.83c0,0.5 -0.43,0.78 -0.92,0.64 -2.2,-0.71 -4.68,-1.13 -6.95,-1.13 -4.82,0 -7.37,1.99 -7.37,5.18 0,3.26 3.76,4.26 7.16,5.04 4.75,1.06 10.14,2.34 10.14,9.08 0,6.17 -4.19,12.48 -13.41,12.48zm51.85 -24.9c0,-6.53 -2.55,-11.63 -10.92,-11.63 -4.89,0 -8.87,2.27 -11.35,5.82 0.29,-1.77 0.07,-0.99 0.07,-3.33l0 -12.69c-0.57,-2.63 -0.78,-3.26 -2.06,-4.97 -0.07,-0.14 -0.43,-0.28 -0.57,-0.28l-4.96 0c-0.64,0 -0.92,0.64 -0.57,1.06 1.84,2.34 2.41,4.26 2.41,7.73l0 37.45c0.07,2.2 0.14,4.4 2.41,4.89 0.78,0.14 1.63,0.28 2.41,0.43 0.43,0.07 0.85,-0.28 0.85,-0.71l0.07 -16.31c0,-8.23 4.18,-14.19 10.28,-14.19 4.89,0 6.17,2.98 6.17,8.3l0 17.66c0.43,2.55 0.71,3.19 2.06,4.97 0.07,0.14 0.35,0.28 0.5,0.28l4.96 0c0.64,0 0.92,-0.64 0.57,-1.13 -1.77,-2.34 -2.34,-4.04 -2.34,-7.66l0 -15.68zm31.07 -11.63c-4.82,0 -8.87,2.69 -11.21,6.38l0 -0.5c-0.43,-2.7 -0.64,-3.33 -1.99,-4.96 -0.07,-0.14 -0.43,-0.29 -0.57,-0.29l-4.96 0c-0.64,0 -0.92,0.64 -0.57,1.14 1.77,2.34 2.34,4.04 2.34,7.73l0.07 20.78c0,2.41 -0.07,4.96 2.41,5.39l-0.07 0c0.71,0.21 1.63,0.36 2.55,0.43 0.43,0 0.78,-0.28 0.78,-0.71l0 -16.17c0,-8.44 4.61,-14.33 10.29,-14.33 4.75,0 6.24,3.05 6.24,8.37l0 17.59c0.43,2.7 0.64,3.33 1.99,4.97 0.07,0.14 0.43,0.28 0.57,0.28l4.89 0c0.64,0 0.92,-0.64 0.57,-1.13 -1.77,-2.34 -2.34,-4.04 -2.34,-7.59l0.07 -15.68c0,-6.6 -2.7,-11.7 -11.06,-11.7zm36.24 0.07c-9.65,0 -15.32,8.37 -15.39,19.72 -0.07,11.21 5.68,16.88 16.17,16.88 4.4,0 8.23,-0.78 11.35,-2.06 0.21,-0.07 0.43,-0.43 0.43,-0.71l-0.36 -3.9c0,-0.5 -0.5,-0.71 -0.99,-0.5 -2.41,1.13 -6.1,2.13 -9.65,2.13 -7.38,0 -11.28,-3.97 -10.92,-12.48 7.59,-1.56 22.63,-2.06 22.63,-2.06 0.28,-2.27 0.43,-2.84 0.5,-2.84 -0.07,-7.59 -4.11,-14.18 -13.76,-14.18zm-0.29 4.68c4.89,0 7.95,3.33 8.16,7.94 0,0 -11.28,1.21 -17.02,2.48 0.92,-6.74 4.47,-10.43 8.86,-10.43zm31.14 31.78c-7.94,0 -10.85,-4.61 -10.85,-9.86 0,-1.56 0.36,-2.98 0.92,-4.26 0.14,-0.29 0.5,-0.5 0.71,-0.43l3.76 0.64c0.36,0.07 0.57,0.35 0.57,0.71 0,0.21 -0.07,0.36 -0.14,0.57 -0.21,0.85 -0.57,2.13 -0.57,2.48 0,2.91 1.99,5.25 6.1,5.25 4.82,0 7.09,-3.4 7.09,-6.95 0,-3.33 -3.48,-4.18 -6.95,-4.89 -4.82,-1.06 -10.21,-2.34 -10.21,-9.43 0,-6.03 4.75,-10.43 13.69,-10.43 2.2,0 4.68,0.21 6.88,0.71 0.35,0.07 0.57,0.43 0.57,0.78l-0.21 3.83c0,0.5 -0.43,0.78 -0.92,0.64 -2.2,-0.71 -4.68,-1.13 -6.95,-1.13 -4.82,0 -7.37,1.99 -7.37,5.18 0,3.26 3.76,4.26 7.16,5.04 4.75,1.06 10.14,2.34 10.14,9.08 0,6.17 -4.19,12.48 -13.41,12.48zm30.57 0c-7.94,0 -10.85,-4.61 -10.85,-9.86 0,-1.56 0.36,-2.98 0.92,-4.26 0.14,-0.29 0.5,-0.5 0.71,-0.43l3.76 0.64c0.36,0.07 0.57,0.35 0.57,0.71 0,0.21 -0.07,0.36 -0.14,0.57 -0.21,0.85 -0.57,2.13 -0.57,2.48 0,2.91 1.99,5.25 6.1,5.25 4.82,0 7.09,-3.4 7.09,-6.95 0,-3.33 -3.48,-4.18 -6.95,-4.89 -4.82,-1.06 -10.21,-2.34 -10.21,-9.43 0,-6.03 4.75,-10.43 13.69,-10.43 2.2,0 4.68,0.21 6.88,0.71 0.35,0.07 0.57,0.43 0.57,0.78l-0.21 3.83c0,0.5 -0.43,0.78 -0.92,0.64 -2.2,-0.71 -4.68,-1.13 -6.95,-1.13 -4.82,0 -7.37,1.99 -7.37,5.18 0,3.26 3.76,4.26 7.16,5.04 4.75,1.06 10.14,2.34 10.14,9.08 0,6.17 -4.19,12.48 -13.41,12.48zm51.5 -31.56c-5.25,0 -10.29,3.19 -10.29,12.34 0,8.58 3.69,14.4 10.29,14.4 5.32,0 10.14,-4.96 10.14,-14.47 0,-8.16 -3.4,-12.27 -10.14,-12.27zm-0.71 31.7c-9.43,0 -15.53,-6.67 -15.53,-19.08 0,-10 6.1,-17.52 16.67,-17.52 8.37,0 15.6,3.69 15.6,16.95 0,10.29 -6.31,19.65 -16.74,19.65zm43.55 -30.08c0,0 -6.17,0.14 -9.79,0.78 0.21,2.98 0.28,7.38 0.28,11.85 0,9.5 -0.35,19.65 -0.35,19.65 0,0.36 -0.36,0.71 -0.71,0.71l-4.26 0c-0.43,0 -0.71,-0.28 -0.71,-0.71 0,0 0.28,-10 0.28,-19.22 0,-4.68 0,-8.16 -0.21,-10.99 -0.92,0.21 -1.56,0.21 -2.55,0.21 -0.85,0 -1.63,-0.07 -2.41,-0.21 -0.28,-0.07 -0.57,-0.36 -0.57,-0.71l0 -3.62c0,-0.5 0.43,-0.85 0.92,-0.71 0.64,0.21 1.28,0.29 1.92,0.29 0.78,0 1.7,-0.14 2.62,-0.36l0 -3.54c0,-9.93 5.04,-15.96 13.41,-15.96 2.13,0 3.97,0.21 5.75,0.64 0.36,0.07 0.64,0.43 0.57,0.71l-0.5 3.76c-0.07,0.5 -0.5,0.78 -0.85,0.64 -1.77,-0.57 -3.69,-0.78 -5.32,-0.78 -5.18,0 -7.37,4.26 -7.37,10.85l0 2.41c3.69,-0.57 9.86,-0.78 9.86,-0.78 0.43,0 0.64,0.29 0.64,0.71l0 3.69c0,0.36 -0.28,0.71 -0.64,0.71zm48.51 -0.78c-0.43,-2.7 -0.64,-3.26 -2.06,-5.04 -0.07,-0.14 -0.43,-0.28 -0.57,-0.28l-4.82 0c-0.64,0 -0.85,0.64 -0.57,1.13 1.77,2.41 2.7,4.19 2.41,7.66 -0.43,3.97 -2.13,9.22 -3.83,12.84 -1.77,3.48 -3.62,6.74 -5.18,8.51 -0.43,-1.49 -1.06,-3.33 -1.7,-5.25 -0.07,-0.21 -0.28,-0.57 -0.35,-0.78l-8.37 -23.48c-0.07,-0.21 -0.35,-0.5 -0.57,-0.5l-4.97 0c-0.5,0 -0.85,0.5 -0.64,0.99 4.26,11.21 8.51,22.41 12.84,33.62 -6.24,6.81 -13.69,11.35 -21.49,11.42 -0.99,0 -2.34,-0.07 -3.55,-0.43 -0.43,-0.14 -0.85,0.14 -0.92,0.57l-0.71 4.04c-0.07,0.36 0.21,0.78 0.57,0.85 1.28,0.21 2.98,0.29 4.04,0.29 14.11,0 27.02,-12.34 32.98,-22.63l-0.07 0.07c0.85,-1.28 1.63,-2.77 2.41,-4.4 1.99,-4.04 5.25,-11.42 5.25,-17.09 0,-0.71 0,-1.49 -0.14,-2.13zm-14.89 25.11l-0.07 0.07 0.07 -0.07zm34.76 -25.96c-5.25,0 -10.29,3.19 -10.29,12.34 0,8.58 3.69,14.4 10.29,14.4 5.32,0 10.14,-4.96 10.14,-14.47 0,-8.16 -3.4,-12.27 -10.14,-12.27zm-0.71 31.7c-9.43,0 -15.53,-6.67 -15.53,-19.08 0,-10 6.1,-17.52 16.67,-17.52 8.37,0 15.6,3.69 15.6,16.95 0,10.29 -6.31,19.65 -16.74,19.65zm55.18 -35.39c0,-0.43 -0.29,-0.71 -0.71,-0.71l-4.26 0c-0.43,0 -0.71,0.28 -0.71,0.71l0 16.21c0,8.46 -4.61,14.43 -10.28,14.43 -4.75,0 -6.24,-3.13 -6.24,-8.39l0 -17.71c-0.5,-2.63 -0.71,-3.26 -1.99,-4.97 -0.07,-0.14 -0.43,-0.28 -0.57,-0.28l-4.96 0c-0.64,0 -0.92,0.64 -0.57,1.13 1.77,2.34 2.34,5.32 2.34,8.88l0 14.45c0,6.61 2.7,11.79 11.06,11.79 5.04,0 8.8,-2.2 11.14,-6.31l0 0.28c0.57,2.77 0.78,3.4 2.06,5.11 0.07,0.14 0.43,0.28 0.57,0.28l4.96 0c0.64,0 0.92,-0.64 0.57,-1.13 -1.7,-2.41 -2.41,-4.11 -2.41,-7.74l0 -26.02zm19.22 0c-0.07,-0.14 -0.43,-0.28 -0.57,-0.28l-4.89 0c-0.64,0 -0.92,0.64 -0.57,1.13 1.77,2.34 2.34,4.04 2.34,7.59l0 25.68c0,0.43 0.28,0.71 0.71,0.71l4.19 0c0.43,0 0.71,-0.28 0.71,-0.71l0 -15.04c0,-10.14 2.84,-14.89 8.58,-14.89 0.64,0 1.35,0.07 2.13,0.21 0.43,0.07 0.85,-0.28 0.85,-0.64l0.14 -4.26c0,-0.35 -0.28,-0.64 -0.64,-0.71 -5.89,-0.64 -9.5,1.7 -11.56,5.11 -0.14,-1.84 -0.28,-2.34 -1.42,-3.9zm54.83 -1.27c-4.82,0 -8.87,2.69 -11.21,6.38l0 -0.5c-0.43,-2.7 -0.64,-3.33 -1.99,-4.96 -0.07,-0.14 -0.43,-0.29 -0.57,-0.29l-4.96 0c-0.64,0 -0.92,0.64 -0.57,1.14 1.77,2.34 2.34,4.04 2.34,7.73l0.07 20.78c0,2.41 -0.07,4.96 2.41,5.39l-0.07 0c0.71,0.21 1.63,0.36 2.55,0.43 0.43,0 0.78,-0.28 0.78,-0.71l0 -16.17c0,-8.44 4.61,-14.33 10.29,-14.33 4.75,0 6.24,3.05 6.24,8.37l0 17.59c0.43,2.7 0.64,3.33 1.99,4.97 0.07,0.14 0.43,0.28 0.57,0.28l4.89 0c0.64,0 0.92,-0.64 0.57,-1.13 -1.77,-2.34 -2.34,-4.04 -2.34,-7.59l0.07 -15.68c0,-6.6 -2.7,-11.7 -11.06,-11.7zm27.23 -12.13c2.84,0 3.69,1.35 3.69,2.77 0,1.99 -1.63,4.96 -3.9,4.96 -2.27,0 -3.69,-2.7 -3.69,-4.75 0,-1.99 1.42,-2.98 3.9,-2.98zm-2.27 48.23c-0.43,0 -0.64,-0.28 -0.64,-0.71l0 -26.03c0,-3.62 -0.64,-5.39 -2.41,-7.73 -0.35,-0.5 -0.07,-1.13 0.5,-1.13l5.03 0c0.14,0 0.5,0.14 0.57,0.28 1.28,1.77 1.42,2.41 1.99,4.96l0 29.65c0,0.43 -0.28,0.71 -0.64,0.71l-4.4 0zm46.31 -37.38l-5.04 0c-0.14,0 -0.5,0.14 -0.57,0.28 -0.5,0.71 -0.71,0.92 -0.99,1.49 -2.34,-0.21 -4.47,-0.36 -6.81,-0.36 -11.13,0 -18.3,7.02 -18.3,19.79 0,11.13 4.96,16.74 13.34,16.74 4.61,0 8.58,-3.48 10.99,-7.52 -1.13,10 -8.37,18.09 -18.51,18.65 -0.92,0 -2.48,-0.21 -3.62,-0.5 -0.43,0 -0.92,0.21 -0.92,0.71l-0.28 4.19c0,0.28 0.28,0.57 0.64,0.64 1.2,0.14 2.84,0.28 3.9,0.28 14.47,0 24.33,-12.91 24.33,-23.55l0 -22.06c0,-3.55 0.57,-5.32 2.41,-7.66l-0.57 -1.13zm-7.59 19.01c0,5.82 -3.26,14.04 -10.07,14.04 -5.53,0 -8.09,-4.61 -8.09,-12.27 0,-10.21 4.61,-14.47 11.7,-14.47 1.92,0 3.83,0.07 5.96,0.57 0.28,0.07 0.5,0.21 0.5,0.35l0 11.78zm46.67 -6.1c0,-6.53 -2.55,-11.63 -10.92,-11.63 -4.89,0 -8.87,2.27 -11.35,5.82 0.29,-1.77 0.07,-0.99 0.07,-3.33l0 -12.69c-0.57,-2.63 -0.78,-3.26 -2.06,-4.97 -0.07,-0.14 -0.43,-0.28 -0.57,-0.28l-4.96 0c-0.64,0 -0.92,0.64 -0.57,1.06 1.84,2.34 2.41,4.26 2.41,7.73l0 37.45c0.07,2.2 0.14,4.4 2.41,4.89 0.78,0.14 1.63,0.28 2.41,0.43 0.43,0.07 0.85,-0.28 0.85,-0.71l0.07 -16.31c0,-8.23 4.18,-14.19 10.28,-14.19 4.89,0 6.17,2.98 6.17,8.3l0 17.66c0.43,2.55 0.71,3.19 2.06,4.97 0.07,0.14 0.35,0.28 0.5,0.28l4.96 0c0.64,0 0.92,-0.64 0.57,-1.13 -1.77,-2.34 -2.34,-4.04 -2.34,-7.66l0 -15.68zm14.47 -18.16c0,-0.28 0.28,-0.64 0.57,-0.71l4.26 -1.14c0.5,-0.14 0.85,0.21 0.85,0.71l0 8.16c3.69,-0.5 9.79,-0.71 9.79,-0.71 0.43,0 0.71,0.28 0.71,0.64l-0.36 4.11c0,0 -6.67,0.43 -10.14,1.06l0 18.3c0,5.96 0.99,7.45 4.75,7.45 1.63,0 3.4,-0.21 4.82,-0.64 0.5,-0.14 0.92,0.21 0.92,0.71l0 3.83c0,0.28 -0.28,0.64 -0.57,0.71 -1.7,0.36 -4.18,0.64 -6.38,0.64 -7.23,0 -9.22,-3.26 -9.22,-10.64l0 -19.01c-0.78,0.14 -1.63,0.21 -2.48,0.21 -0.85,0 -1.63,-0.07 -2.41,-0.21 -0.28,-0.07 -0.57,-0.36 -0.57,-0.71l0 -3.69c0,-0.43 0.43,-0.78 0.92,-0.64 0.71,0.21 1.35,0.29 1.92,0.29 0.78,0 1.7,-0.14 2.62,-0.36l0 -8.37zm32.13 43.05c-7.94,0 -10.85,-4.61 -10.85,-9.86 0,-1.56 0.36,-2.98 0.92,-4.26 0.14,-0.29 0.5,-0.5 0.71,-0.43l3.76 0.64c0.36,0.07 0.57,0.35 0.57,0.71 0,0.21 -0.07,0.36 -0.14,0.57 -0.21,0.85 -0.57,2.13 -0.57,2.48 0,2.91 1.99,5.25 6.1,5.25 4.82,0 7.09,-3.4 7.09,-6.95 0,-3.33 -3.48,-4.18 -6.95,-4.89 -4.82,-1.06 -10.21,-2.34 -10.21,-9.43 0,-6.03 4.75,-10.43 13.69,-10.43 2.2,0 4.68,0.21 6.88,0.71 0.35,0.07 0.57,0.43 0.57,0.78l-0.21 3.83c0,0.5 -0.43,0.78 -0.92,0.64 -2.2,-0.71 -4.68,-1.13 -6.95,-1.13 -4.82,0 -7.37,1.99 -7.37,5.18 0,3.26 3.76,4.26 7.16,5.04 4.75,1.06 10.14,2.34 10.14,9.08 0,6.17 -4.19,12.48 -13.41,12.48z"/>
 </g>
</svg>
