<?xml version="1.0" encoding="UTF-8"?>
<!DOCTYPE svg PUBLIC "-//W3C//DTD SVG 1.1//EN" "http://www.w3.org/Graphics/SVG/1.1/DTD/svg11.dtd">
<!-- Creator: CorelDRAW 2021 (64-Bit) -->
<svg xmlns="http://www.w3.org/2000/svg" xml:space="preserve" width="2.03124in" height="0.163803in" version="1.1" style="shape-rendering:geometricPrecision; text-rendering:geometricPrecision; image-rendering:optimizeQuality; fill-rule:evenodd; clip-rule:evenodd"
viewBox="0 0 2448.5 197.45"
 xmlns:xlink="http://www.w3.org/1999/xlink"
 xmlns:xodm="http://www.corel.com/coreldraw/odm/2003">
 <defs>
  <style type="text/css">
   <![CDATA[
    .str0 {stroke:#373435;stroke-width:3.62;stroke-linecap:round;stroke-linejoin:round;stroke-miterlimit:2.61313}
    .fil0 {fill:#373435;fill-rule:nonzero}
   ]]>
  </style>
 </defs>
 <g id="Capa_x0020_1">
  <metadata id="CorelCorpID_0Corel-Layer"/>
  <path class="fil0 str0" d="M98.53 14.14c0,-1.2 -0.8,-1.99 -1.99,-1.99 -17.12,0.79 -72.05,4.97 -92.95,7.96 -1,0.2 -1.79,1 -1.79,1.99l0 10.15c0,0.99 1.2,1.99 2.19,1.79 9.75,-1.59 23.48,-3.18 38.21,-4.38l0 116.23c0,1.19 0.8,1.99 1.99,1.99l12.14 0c1.19,0 1.99,-0.8 1.99,-1.99l0 -117.42c16.32,-1.19 29.65,-1.79 38.21,-1.99 0.99,0 1.99,-0.79 1.99,-1.79l0 -10.55zm101.69 65.08c0,-18.31 -7.16,-32.64 -30.64,-32.64 -13.73,0 -24.88,6.36 -31.85,16.32 0.8,-4.98 0.2,-2.79 0.2,-9.36l0 -35.62c-1.59,-7.37 -2.19,-9.16 -5.78,-13.94 -0.19,-0.39 -1.19,-0.79 -1.59,-0.79l-13.93 0c-1.79,0 -2.58,1.79 -1.59,2.99 5.18,6.57 6.77,11.94 6.77,21.69l0 105.08c0.2,6.17 0.39,12.34 6.76,13.73 2.19,0.4 4.58,0.79 6.77,1.2 1.19,0.19 2.39,-0.8 2.39,-1.99l0.2 -45.78c0,-23.09 11.74,-39.81 28.85,-39.81 13.73,0 17.31,8.36 17.31,23.29l0 49.56c1.2,7.17 1.99,8.96 5.78,13.93 0.2,0.39 0.99,0.8 1.39,0.8l13.93 0c1.79,0 2.59,-1.79 1.59,-3.18 -4.97,-6.57 -6.57,-11.34 -6.57,-21.49l0 -43.98zm70.85 -32.44c-27.07,0 -42.99,23.48 -43.19,55.32 -0.2,31.45 15.92,47.37 45.37,47.37 12.34,0 23.09,-2.19 31.85,-5.78 0.6,-0.2 1.19,-1.2 1.19,-1.99l-1 -10.95c0,-1.39 -1.39,-1.99 -2.79,-1.39 -6.77,3.18 -17.11,5.97 -27.07,5.97 -20.7,0 -31.64,-11.15 -30.65,-35.03 21.29,-4.38 63.48,-5.77 63.48,-5.77 0.79,-6.37 1.2,-7.96 1.39,-7.96 -0.19,-21.29 -11.54,-39.8 -38.6,-39.8zm-0.8 13.14c13.73,0 22.3,9.35 22.89,22.29 0,0 -31.64,3.38 -47.77,6.97 2.59,-18.91 12.54,-29.25 24.87,-29.25zm158.82 5.17c0,0 -17.32,0.4 -27.47,2.19 0.6,8.36 0.8,20.7 0.8,33.23 0,26.67 -0.99,55.13 -0.99,55.13 0,1 -1,1.99 -1.99,1.99l-11.94 0c-1.2,0 -1.99,-0.79 -1.99,-1.99 0,0 0.79,-28.06 0.79,-53.93 0,-13.14 0,-22.89 -0.6,-30.85 -2.59,0.59 -4.38,0.59 -7.17,0.59 -2.39,0 -4.57,-0.19 -6.76,-0.59 -0.79,-0.2 -1.59,-1 -1.59,-1.99l0 -10.15c0,-1.4 1.2,-2.39 2.59,-1.99 1.79,0.59 3.58,0.8 5.38,0.8 2.18,0 4.77,-0.4 7.36,-1l0 -9.95c0,-27.86 14.13,-44.78 37.61,-44.78 5.97,0 11.14,0.6 16.12,1.79 1,0.2 1.79,1.2 1.59,1.99l-1.4 10.55c-0.2,1.39 -1.39,2.19 -2.39,1.79 -4.97,-1.59 -10.35,-2.19 -14.93,-2.19 -14.52,0 -20.69,11.94 -20.69,30.45l0 6.76c10.35,-1.59 27.66,-2.19 27.66,-2.19 1.19,0 1.79,0.8 1.79,1.99l0 10.35c0,1 -0.79,1.99 -1.79,1.99zm35.02 -14.93c-0.19,-0.39 -1.19,-0.79 -1.59,-0.79l-13.73 0c-1.79,0 -2.59,1.79 -1.59,3.18 4.97,6.57 6.57,11.34 6.57,21.3l0 72.05c0,1.19 0.79,1.99 1.99,1.99l11.75 0c1.19,0 1.99,-0.8 1.99,-1.99l0 -42.19c0,-28.46 7.96,-41.8 24.08,-41.8 1.79,0 3.78,0.2 5.97,0.6 1.19,0.2 2.39,-0.79 2.39,-1.79l0.39 -11.94c0,-0.99 -0.79,-1.79 -1.79,-1.99 -16.51,-1.79 -26.66,4.77 -32.44,14.33 -0.4,-5.18 -0.79,-6.57 -3.98,-10.95zm94.14 -3.38c-27.07,0 -42.99,23.48 -43.19,55.32 -0.19,31.45 15.93,47.37 45.38,47.37 12.34,0 23.09,-2.19 31.84,-5.78 0.6,-0.2 1.2,-1.2 1.2,-1.99l-1 -10.95c0,-1.39 -1.39,-1.99 -2.79,-1.39 -6.76,3.18 -17.11,5.97 -27.07,5.97 -20.7,0 -31.64,-11.15 -30.64,-35.03 21.29,-4.38 63.48,-5.77 63.48,-5.77 0.79,-6.37 1.19,-7.96 1.39,-7.96 -0.2,-21.29 -11.54,-39.8 -38.61,-39.8zm-0.8 13.14c13.73,0 22.29,9.35 22.89,22.29 0,0 -31.64,3.38 -47.76,6.97 2.58,-18.91 12.54,-29.25 24.87,-29.25zm87.36 89.15c-22.29,0 -30.45,-12.94 -30.45,-27.66 0,-4.39 1,-8.36 2.58,-11.94 0.4,-0.8 1.4,-1.4 2,-1.2l10.54 1.79c1,0.2 1.59,0.99 1.59,1.99 0,0.6 -0.19,1 -0.4,1.59 -0.6,2.39 -1.59,5.97 -1.59,6.96 0,8.16 5.57,14.73 17.11,14.73 13.53,0 19.9,-9.55 19.9,-19.51 0,-9.35 -9.75,-11.74 -19.51,-13.73 -13.53,-2.99 -28.66,-6.57 -28.66,-26.47 0,-16.91 13.34,-29.26 38.41,-29.26 6.17,0 13.13,0.6 19.31,1.99 0.99,0.2 1.59,1.2 1.59,2.19l-0.6 10.75c0,1.39 -1.2,2.19 -2.59,1.79 -6.16,-1.99 -13.13,-3.18 -19.51,-3.18 -13.53,0 -20.69,5.57 -20.69,14.52 0,9.15 10.54,11.95 20.09,14.13 13.34,2.99 28.47,6.57 28.47,25.47 0,17.31 -11.75,35.03 -37.61,35.03zm145.48 -69.85c0,-18.31 -7.17,-32.64 -30.64,-32.64 -13.73,0 -24.88,6.36 -31.85,16.32 0.8,-4.98 0.2,-2.79 0.2,-9.36l0 -35.62c-1.59,-7.37 -2.19,-9.16 -5.78,-13.94 -0.19,-0.39 -1.19,-0.79 -1.59,-0.79l-13.93 0c-1.79,0 -2.58,1.79 -1.59,2.99 5.18,6.57 6.77,11.94 6.77,21.69l0 105.08c0.19,6.17 0.39,12.34 6.76,13.73 2.19,0.4 4.58,0.79 6.77,1.2 1.19,0.19 2.39,-0.8 2.39,-1.99l0.2 -45.78c0,-23.09 11.74,-39.81 28.85,-39.81 13.73,0 17.31,8.36 17.31,23.29l0 49.56c1.2,7.17 1.99,8.96 5.78,13.93 0.19,0.39 0.99,0.8 1.39,0.8l13.93 0c1.79,0 2.59,-1.79 1.59,-3.18 -4.97,-6.57 -6.57,-11.34 -6.57,-21.49l0 -43.98zm87.17 -32.64c-13.53,0 -24.88,7.56 -31.45,17.91l0 -1.39c-1.2,-7.56 -1.79,-9.35 -5.57,-13.93 -0.2,-0.4 -1.2,-0.8 -1.59,-0.8l-13.93 0c-1.79,0 -2.59,1.79 -1.59,3.19 4.98,6.57 6.57,11.35 6.57,21.69l0.2 58.31c0,6.77 -0.2,13.93 6.76,15.12l-0.19 0c1.98,0.6 4.57,1 7.16,1.2 1.2,0 2.19,-0.8 2.19,-1.99l0 -45.38c0,-23.68 12.94,-40.21 28.86,-40.21 13.33,0 17.51,8.57 17.51,23.49l0 49.35c1.2,7.56 1.79,9.35 5.57,13.93 0.2,0.39 1.19,0.8 1.59,0.8l13.73 0c1.79,0 2.59,-1.79 1.59,-3.18 -4.97,-6.57 -6.56,-11.34 -6.56,-21.29l0.2 -43.99c0,-18.51 -7.56,-32.83 -31.05,-32.83zm101.69 0.2c-27.07,0 -42.99,23.48 -43.19,55.32 -0.19,31.45 15.93,47.37 45.38,47.37 12.34,0 23.09,-2.19 31.84,-5.78 0.6,-0.2 1.2,-1.2 1.2,-1.99l-1 -10.95c0,-1.39 -1.39,-1.99 -2.79,-1.39 -6.76,3.18 -17.11,5.97 -27.06,5.97 -20.7,0 -31.64,-11.15 -30.65,-35.03 21.29,-4.38 63.48,-5.77 63.48,-5.77 0.79,-6.37 1.19,-7.96 1.39,-7.96 -0.2,-21.29 -11.54,-39.8 -38.61,-39.8zm-0.8 13.14c13.73,0 22.29,9.35 22.89,22.29 0,0 -31.64,3.38 -47.76,6.97 2.58,-18.91 12.54,-29.25 24.87,-29.25zm87.36 89.15c-22.29,0 -30.45,-12.94 -30.45,-27.66 0,-4.39 1,-8.36 2.58,-11.94 0.4,-0.8 1.4,-1.4 2,-1.2l10.54 1.79c1,0.2 1.59,0.99 1.59,1.99 0,0.6 -0.19,1 -0.4,1.59 -0.6,2.39 -1.59,5.97 -1.59,6.96 0,8.16 5.57,14.73 17.11,14.73 13.53,0 19.91,-9.55 19.91,-19.51 0,-9.35 -9.76,-11.74 -19.51,-13.73 -13.53,-2.99 -28.65,-6.57 -28.65,-26.47 0,-16.91 13.33,-29.26 38.41,-29.26 6.17,0 13.13,0.6 19.31,1.99 0.99,0.2 1.59,1.2 1.59,2.19l-0.6 10.75c0,1.39 -1.19,2.19 -2.59,1.79 -6.16,-1.99 -13.13,-3.18 -19.51,-3.18 -13.53,0 -20.69,5.57 -20.69,14.52 0,9.15 10.55,11.95 20.09,14.13 13.34,2.99 28.47,6.57 28.47,25.47 0,17.31 -11.75,35.03 -37.61,35.03zm85.78 0c-22.29,0 -30.45,-12.94 -30.45,-27.66 0,-4.39 1,-8.36 2.59,-11.94 0.4,-0.8 1.4,-1.4 1.99,-1.2l10.55 1.79c1,0.2 1.59,0.99 1.59,1.99 0,0.6 -0.19,1 -0.4,1.59 -0.6,2.39 -1.59,5.97 -1.59,6.96 0,8.16 5.57,14.73 17.11,14.73 13.53,0 19.9,-9.55 19.9,-19.51 0,-9.35 -9.76,-11.74 -19.51,-13.73 -13.53,-2.99 -28.66,-6.57 -28.66,-26.47 0,-16.91 13.34,-29.26 38.41,-29.26 6.17,0 13.14,0.6 19.31,1.99 0.99,0.2 1.59,1.2 1.59,2.19l-0.6 10.75c0,1.39 -1.2,2.19 -2.59,1.79 -6.16,-1.99 -13.14,-3.18 -19.51,-3.18 -13.53,0 -20.69,5.57 -20.69,14.52 0,9.15 10.54,11.95 20.09,14.13 13.34,2.99 28.46,6.57 28.46,25.47 0,17.31 -11.74,35.03 -37.61,35.03zm144.49 -88.56c-14.73,0 -28.86,8.96 -28.86,34.63 0,24.08 10.35,40.4 28.86,40.4 14.93,0 28.46,-13.93 28.46,-40.6 0,-22.88 -9.55,-34.43 -28.46,-34.43zm-1.99 88.96c-26.47,0 -43.59,-18.71 -43.59,-53.54 0,-28.06 17.12,-49.15 46.77,-49.15 23.48,0 43.78,10.35 43.78,47.56 0,28.86 -17.72,55.14 -46.97,55.14zm122.2 -84.39c0,0 -17.32,0.4 -27.46,2.19 0.6,8.36 0.79,20.7 0.79,33.23 0,26.67 -0.99,55.13 -0.99,55.13 0,1 -1,1.99 -1.99,1.99l-11.94 0c-1.2,0 -1.99,-0.79 -1.99,-1.99 0,0 0.79,-28.06 0.79,-53.93 0,-13.14 0,-22.89 -0.6,-30.85 -2.58,0.59 -4.38,0.59 -7.16,0.59 -2.39,0 -4.57,-0.19 -6.77,-0.59 -0.79,-0.2 -1.59,-1 -1.59,-1.99l0 -10.15c0,-1.4 1.2,-2.39 2.6,-1.99 1.79,0.59 3.58,0.8 5.37,0.8 2.18,0 4.77,-0.4 7.36,-1l0 -9.95c0,-27.86 14.13,-44.78 37.61,-44.78 5.97,0 11.15,0.6 16.12,1.79 1,0.2 1.79,1.2 1.59,1.99l-1.4 10.55c-0.19,1.39 -1.39,2.19 -2.39,1.79 -4.97,-1.59 -10.35,-2.19 -14.93,-2.19 -14.53,0 -20.7,11.94 -20.7,30.45l0 6.76c10.35,-1.59 27.66,-2.19 27.66,-2.19 1.19,0 1.79,0.8 1.79,1.99l0 10.35c0,1 -0.79,1.99 -1.79,1.99zm136.13 -2.18c-1.2,-7.56 -1.79,-9.16 -5.78,-14.13 -0.19,-0.4 -1.2,-0.8 -1.59,-0.8l-13.54 0c-1.79,0 -2.39,1.79 -1.59,3.18 4.98,6.76 7.57,11.75 6.77,21.49 -1.19,11.15 -5.97,25.87 -10.74,36.02 -4.98,9.76 -10.15,18.91 -14.54,23.88 -1.19,-4.18 -2.99,-9.35 -4.77,-14.72 -0.19,-0.6 -0.79,-1.59 -0.99,-2.19l-23.49 -65.87c-0.19,-0.6 -0.99,-1.4 -1.59,-1.4l-13.93 0c-1.39,0 -2.39,1.4 -1.79,2.79 11.94,31.45 23.88,62.89 36.03,94.33 -17.52,19.11 -38.42,31.84 -60.3,32.04 -2.79,0 -6.56,-0.2 -9.95,-1.19 -1.19,-0.4 -2.39,0.39 -2.59,1.59l-1.99 11.35c-0.19,1 0.6,2.19 1.59,2.39 3.58,0.6 8.36,0.8 11.34,0.8 39.6,0 75.83,-34.63 92.54,-63.49l-0.19 0.2c2.39,-3.58 4.57,-7.76 6.76,-12.34 5.57,-11.35 14.73,-32.04 14.73,-47.96 0,-2 0,-4.18 -0.4,-5.97zm-41.8 70.45l-0.19 0.19 0.19 -0.19zm97.53 -72.84c-14.73,0 -28.86,8.96 -28.86,34.63 0,24.08 10.36,40.4 28.86,40.4 14.93,0 28.45,-13.93 28.45,-40.6 0,-22.88 -9.55,-34.43 -28.45,-34.43zm-2 88.96c-26.47,0 -43.59,-18.71 -43.59,-53.54 0,-28.06 17.12,-49.15 46.77,-49.15 23.48,0 43.78,10.35 43.78,47.56 0,28.86 -17.72,55.14 -46.97,55.14zm154.84 -99.31c0,-1.2 -0.8,-1.99 -1.99,-1.99l-11.94 0c-1.2,0 -1.99,0.79 -1.99,1.99l0 45.48c0,23.74 -12.94,40.5 -28.85,40.5 -13.34,0 -17.52,-8.78 -17.52,-23.55l0 -49.68c-1.39,-7.37 -1.99,-9.16 -5.57,-13.94 -0.2,-0.39 -1.2,-0.79 -1.59,-0.79l-13.93 0c-1.79,0 -2.59,1.79 -1.59,3.18 4.98,6.57 6.57,14.93 6.57,24.92l0 40.53c0,18.54 7.56,33.06 31.04,33.06 14.13,0 24.68,-6.16 31.25,-17.71l0 0.79c1.59,7.76 2.19,9.55 5.77,14.33 0.2,0.4 1.2,0.79 1.59,0.79l13.93 0c1.79,0 2.59,-1.79 1.59,-3.18 -4.77,-6.77 -6.76,-11.54 -6.76,-21.73l0 -73.01zm53.93 0c-0.2,-0.39 -1.2,-0.79 -1.59,-0.79l-13.73 0c-1.79,0 -2.6,1.79 -1.59,3.18 4.97,6.57 6.56,11.34 6.56,21.3l0 72.05c0,1.19 0.8,1.99 1.99,1.99l11.75 0c1.2,0 1.99,-0.8 1.99,-1.99l0 -42.19c0,-28.46 7.96,-41.8 24.08,-41.8 1.79,0 3.78,0.2 5.97,0.6 1.2,0.2 2.39,-0.79 2.39,-1.79l0.39 -11.94c0,-0.99 -0.79,-1.79 -1.79,-1.99 -16.52,-1.79 -26.67,4.77 -32.44,14.33 -0.4,-5.18 -0.79,-6.57 -3.98,-10.95zm153.84 -3.58c-13.53,0 -24.88,7.56 -31.45,17.91l0 -1.39c-1.2,-7.56 -1.79,-9.35 -5.57,-13.93 -0.19,-0.4 -1.19,-0.8 -1.59,-0.8l-13.93 0c-1.79,0 -2.58,1.79 -1.59,3.19 4.98,6.57 6.57,11.35 6.57,21.69l0.2 58.31c0,6.77 -0.2,13.93 6.76,15.12l-0.19 0c1.99,0.6 4.57,1 7.17,1.2 1.19,0 2.18,-0.8 2.18,-1.99l0 -45.38c0,-23.68 12.94,-40.21 28.86,-40.21 13.33,0 17.51,8.57 17.51,23.49l0 49.35c1.2,7.56 1.79,9.35 5.57,13.93 0.2,0.39 1.2,0.8 1.59,0.8l13.73 0c1.79,0 2.58,-1.79 1.59,-3.18 -4.97,-6.57 -6.56,-11.34 -6.56,-21.29l0.19 -43.99c0,-18.51 -7.56,-32.83 -31.05,-32.83zm76.42 -34.03c7.96,0 10.36,3.78 10.36,7.76 0,5.57 -4.58,13.93 -10.95,13.93 -6.36,0 -10.35,-7.56 -10.35,-13.33 0,-5.58 3.98,-8.36 10.94,-8.36zm-6.36 135.33c-1.19,0 -1.79,-0.8 -1.79,-1.99l0 -73.05c0,-10.15 -1.79,-15.12 -6.77,-21.69 -0.99,-1.39 -0.2,-3.18 1.4,-3.18l14.13 0c0.4,0 1.4,0.39 1.59,0.8 3.58,4.97 3.98,6.76 5.57,13.93l0 83.19c0,1.19 -0.8,1.99 -1.79,1.99l-12.33 0zm129.95 -104.88l-14.13 0c-0.39,0 -1.39,0.39 -1.59,0.79 -1.4,1.99 -2,2.58 -2.79,4.18 -6.57,-0.59 -12.54,-1 -19.11,-1 -31.24,0 -51.34,19.7 -51.34,55.53 0,31.25 13.93,46.97 37.42,46.97 12.93,0 24.08,-9.76 30.84,-21.1 -3.18,28.06 -23.48,50.75 -51.94,52.35 -2.59,0 -6.96,-0.6 -10.15,-1.39 -1.19,0 -2.58,0.6 -2.58,1.99l-0.8 11.74c0,0.8 0.8,1.59 1.79,1.79 3.38,0.39 7.96,0.79 10.94,0.79 40.6,0 68.26,-36.22 68.26,-66.08l0 -61.89c0,-9.95 1.59,-14.93 6.77,-21.49l-1.59 -3.18zm-21.3 53.33c0,16.32 -9.15,39.4 -28.26,39.4 -15.52,0 -22.69,-12.94 -22.69,-34.43 0,-28.66 12.94,-40.6 32.84,-40.6 5.37,0 10.74,0.19 16.71,1.59 0.8,0.19 1.39,0.6 1.39,0.99l0 33.04zm130.95 -17.12c0,-18.31 -7.17,-32.64 -30.65,-32.64 -13.73,0 -24.88,6.36 -31.85,16.32 0.8,-4.98 0.2,-2.79 0.2,-9.36l0 -35.62c-1.59,-7.37 -2.19,-9.16 -5.77,-13.94 -0.2,-0.39 -1.2,-0.79 -1.59,-0.79l-13.93 0c-1.79,0 -2.59,1.79 -1.59,2.99 5.17,6.57 6.77,11.94 6.77,21.69l0 105.08c0.2,6.17 0.39,12.34 6.77,13.73 2.19,0.4 4.58,0.79 6.76,1.2 1.2,0.19 2.39,-0.8 2.39,-1.99l0.2 -45.78c0,-23.09 11.74,-39.81 28.85,-39.81 13.73,0 17.32,8.36 17.32,23.29l0 49.56c1.19,7.17 1.99,8.96 5.77,13.93 0.2,0.39 0.99,0.8 1.39,0.8l13.93 0c1.79,0 2.59,-1.79 1.59,-3.18 -4.97,-6.57 -6.56,-11.34 -6.56,-21.49l0 -43.98zm40.6 -50.95c0,-0.79 0.8,-1.79 1.59,-1.99l11.94 -3.19c1.4,-0.39 2.39,0.6 2.39,1.99l0 22.88c10.35,-1.39 27.46,-1.98 27.46,-1.98 1.19,0 1.99,0.79 1.99,1.79l-1 11.54c0,0 -18.71,1.19 -28.46,2.99l0 51.34c0,16.72 2.78,20.9 13.33,20.9 4.58,0 9.55,-0.59 13.53,-1.79 1.39,-0.4 2.59,0.6 2.59,1.99l0 10.74c0,0.8 -0.8,1.79 -1.59,1.99 -4.78,1 -11.74,1.79 -17.91,1.79 -20.3,0 -25.87,-9.15 -25.87,-29.86l0 -53.33c-2.19,0.4 -4.58,0.6 -6.97,0.6 -2.39,0 -4.57,-0.2 -6.76,-0.6 -0.79,-0.19 -1.59,-1 -1.59,-1.99l0 -10.35c0,-1.2 1.2,-2.19 2.59,-1.79 1.99,0.6 3.78,0.8 5.37,0.8 2.19,0 4.78,-0.4 7.36,-1l0 -23.48zm90.16 120.8c-22.29,0 -30.45,-12.94 -30.45,-27.66 0,-4.39 1,-8.36 2.59,-11.94 0.4,-0.8 1.4,-1.4 1.99,-1.2l10.55 1.79c1,0.2 1.59,0.99 1.59,1.99 0,0.6 -0.2,1 -0.4,1.59 -0.6,2.39 -1.59,5.97 -1.59,6.96 0,8.16 5.57,14.73 17.11,14.73 13.53,0 19.91,-9.55 19.91,-19.51 0,-9.35 -9.76,-11.74 -19.51,-13.73 -13.53,-2.99 -28.66,-6.57 -28.66,-26.47 0,-16.91 13.33,-29.26 38.41,-29.26 6.17,0 13.14,0.6 19.31,1.99 0.99,0.2 1.59,1.2 1.59,2.19l-0.6 10.75c0,1.39 -1.19,2.19 -2.58,1.79 -6.17,-1.99 -13.14,-3.18 -19.51,-3.18 -13.53,0 -20.7,5.57 -20.7,14.52 0,9.15 10.55,11.95 20.1,14.13 13.34,2.99 28.46,6.57 28.46,25.47 0,17.31 -11.75,35.03 -37.61,35.03z"/>
 </g>
</svg>
