<?xml version="1.0" encoding="UTF-8"?>
<!DOCTYPE svg PUBLIC "-//W3C//DTD SVG 1.1//EN" "http://www.w3.org/Graphics/SVG/1.1/DTD/svg11.dtd">
<!-- Creator: CorelDRAW 2021 (64-Bit) -->
<svg xmlns="http://www.w3.org/2000/svg" xml:space="preserve" width="0.418874in" height="0.41887in" version="1.1" style="shape-rendering:geometricPrecision; text-rendering:geometricPrecision; image-rendering:optimizeQuality; fill-rule:evenodd; clip-rule:evenodd"
viewBox="0 0 7.09 7.09"
 xmlns:xlink="http://www.w3.org/1999/xlink"
 xmlns:xodm="http://www.corel.com/coreldraw/odm/2003">
 <defs>
  <style type="text/css">
   <![CDATA[
    .fil1 {fill:#FEFEFE}
    .fil0 {fill:#664634}
   ]]>
  </style>
 </defs>
 <g id="Capa_x0020_1">
  <metadata id="CorelCorpID_0Corel-Layer"/>
  <path class="fil0" d="M3.54 0c1.96,0 3.54,1.59 3.54,3.54 0,1.96 -1.59,3.54 -3.54,3.54 -1.96,0 -3.54,-1.59 -3.54,-3.54 0,-1.96 1.59,-3.54 3.54,-3.54z"/>
  <path class="fil1" d="M3.59 1.52c-1.03,0 -1.87,0.78 -1.96,1.78 -0.03,0.06 -0.03,0.12 -0.03,0.19 0,0.44 0.16,0.84 0.37,1.15 -0.25,0.72 -0.25,0.72 -0.25,0.72 0.78,-0.22 0.78,-0.22 0.78,-0.22 0.31,0.19 0.69,0.31 1.09,0.31 1.09,0 1.96,-0.87 1.96,-1.96 0,-0.06 0,-0.09 0,-0.16 -0.09,-1 -0.93,-1.81 -1.96,-1.81l0 0zm1.15 2.77c-0.06,0.12 -0.28,0.28 -0.41,0.28 -0.09,0 -0.09,0.09 -0.69,-0.16 -0.59,-0.22 -0.97,-0.81 -1,-0.84 0,-0.03 -0.12,-0.22 -0.19,-0.41 -0.03,-0.06 -0.03,-0.12 -0.03,-0.19 0,-0.28 0.16,-0.44 0.19,-0.5 0.06,-0.06 0.12,-0.06 0.16,-0.06 0.06,0 0.09,0 0.12,0 0.03,0 0.09,0 0.12,0.09 0.06,0.12 0.16,0.41 0.19,0.44 0,0.03 0.03,0.06 0,0.09 -0.03,0.03 -0.03,0.06 -0.03,0.06 0,0.03 -0.03,0.03 -0.03,0.03 -0.03,0.03 -0.06,0.06 -0.09,0.09 -0.03,0.03 -0.06,0.06 -0.03,0.12 0.06,0.06 0.16,0.25 0.34,0.41 0.22,0.19 0.41,0.25 0.47,0.28 0.03,0.03 0.09,0.03 0.12,-0.03 0.03,-0.03 0.12,-0.16 0.16,-0.22 0.06,-0.06 0.09,-0.03 0.16,-0.03 0.03,0.03 0.31,0.16 0.37,0.19 0.06,0.03 0.09,0.06 0.12,0.06 0,0.03 0,0.16 -0.03,0.28l0 0zm-1.15 1.53c-0.41,0 -0.81,-0.09 -1.15,-0.28 -1.28,0.41 -1.28,0.41 -1.28,0.41 0.41,-1.25 0.41,-1.25 0.41,-1.25 -0.22,-0.34 -0.34,-0.78 -0.34,-1.22 0,-0.03 0,-0.06 0,-0.09 0.06,-1.25 1.09,-2.24 2.37,-2.24 1.28,0 2.31,1.03 2.34,2.27 0,0.03 0,0.06 0,0.06 0,1.31 -1.06,2.34 -2.34,2.34l0 0z"/>
 </g>
</svg>
